<mxfile host="app.diagrams.net" agent="Mozilla/5.0 (Windows NT 10.0; Win64; x64) AppleWebKit/537.36 (KHTML, like Gecko) Chrome/136.0.0.0 Safari/537.36" version="27.0.4">
  <diagram name="Page-1" id="ANhMsEbDLOaCdmiEP5E4">
    <mxGraphModel dx="1426" dy="743" grid="1" gridSize="10" guides="1" tooltips="1" connect="1" arrows="1" fold="1" page="1" pageScale="1" pageWidth="827" pageHeight="1169" math="0" shadow="0">
      <root>
        <mxCell id="0" />
        <mxCell id="1" parent="0" />
        <mxCell id="iBq9-ltOe1gAeGgbi-jn-4" style="edgeStyle=orthogonalEdgeStyle;rounded=0;orthogonalLoop=1;jettySize=auto;html=1;entryX=0.5;entryY=0;entryDx=0;entryDy=0;" edge="1" parent="1" source="iBq9-ltOe1gAeGgbi-jn-1" target="iBq9-ltOe1gAeGgbi-jn-3">
          <mxGeometry relative="1" as="geometry" />
        </mxCell>
        <mxCell id="iBq9-ltOe1gAeGgbi-jn-1" value="Get Resident" style="rounded=1;whiteSpace=wrap;html=1;" vertex="1" parent="1">
          <mxGeometry x="120" y="80" width="120" height="60" as="geometry" />
        </mxCell>
        <mxCell id="iBq9-ltOe1gAeGgbi-jn-6" style="edgeStyle=orthogonalEdgeStyle;rounded=0;orthogonalLoop=1;jettySize=auto;html=1;entryX=0.5;entryY=0;entryDx=0;entryDy=0;" edge="1" parent="1" source="iBq9-ltOe1gAeGgbi-jn-3" target="iBq9-ltOe1gAeGgbi-jn-5">
          <mxGeometry relative="1" as="geometry" />
        </mxCell>
        <mxCell id="iBq9-ltOe1gAeGgbi-jn-3" value="Get Resident lanes" style="rounded=1;whiteSpace=wrap;html=1;" vertex="1" parent="1">
          <mxGeometry x="120" y="180" width="120" height="60" as="geometry" />
        </mxCell>
        <mxCell id="iBq9-ltOe1gAeGgbi-jn-8" style="edgeStyle=orthogonalEdgeStyle;rounded=0;orthogonalLoop=1;jettySize=auto;html=1;" edge="1" parent="1" source="iBq9-ltOe1gAeGgbi-jn-5" target="iBq9-ltOe1gAeGgbi-jn-7">
          <mxGeometry relative="1" as="geometry" />
        </mxCell>
        <mxCell id="iBq9-ltOe1gAeGgbi-jn-5" value="Get lane items (device id)" style="rounded=1;whiteSpace=wrap;html=1;" vertex="1" parent="1">
          <mxGeometry x="120" y="280" width="120" height="60" as="geometry" />
        </mxCell>
        <mxCell id="iBq9-ltOe1gAeGgbi-jn-10" style="edgeStyle=orthogonalEdgeStyle;rounded=0;orthogonalLoop=1;jettySize=auto;html=1;" edge="1" parent="1" source="iBq9-ltOe1gAeGgbi-jn-7" target="iBq9-ltOe1gAeGgbi-jn-9">
          <mxGeometry relative="1" as="geometry" />
        </mxCell>
        <mxCell id="iBq9-ltOe1gAeGgbi-jn-7" value="Get derived activities using device_id" style="rounded=1;whiteSpace=wrap;html=1;" vertex="1" parent="1">
          <mxGeometry x="120" y="380" width="120" height="60" as="geometry" />
        </mxCell>
        <mxCell id="iBq9-ltOe1gAeGgbi-jn-12" style="edgeStyle=orthogonalEdgeStyle;rounded=0;orthogonalLoop=1;jettySize=auto;html=1;dashed=1;endArrow=none;startFill=0;" edge="1" parent="1" source="iBq9-ltOe1gAeGgbi-jn-9" target="iBq9-ltOe1gAeGgbi-jn-11">
          <mxGeometry relative="1" as="geometry" />
        </mxCell>
        <mxCell id="iBq9-ltOe1gAeGgbi-jn-9" value="Display data" style="rounded=1;whiteSpace=wrap;html=1;" vertex="1" parent="1">
          <mxGeometry x="120" y="480" width="120" height="60" as="geometry" />
        </mxCell>
        <mxCell id="iBq9-ltOe1gAeGgbi-jn-11" value="For deeper data (i.e. beyond the charts), a combination of the device table, lanes, and derived resident activity table can be used" style="rounded=1;whiteSpace=wrap;html=1;dashed=1;" vertex="1" parent="1">
          <mxGeometry x="309" y="455" width="209" height="110" as="geometry" />
        </mxCell>
      </root>
    </mxGraphModel>
  </diagram>
</mxfile>
